<svg id="Neu_1" data-name="Neu 1" xmlns="http://www.w3.org/2000/svg" viewBox="0 0 348.95 36.45"><defs><style>.cls-1,.cls-4{fill:#605e5d;}.cls-2{fill:#1d1d1b;}.cls-3{fill:#cc1517;}.cls-4{stroke:#605e5d;stroke-width:2px;}</style></defs><path class="cls-1" d="M197.33,7.19V30.52h-4.54V7.19Z"/><path class="cls-1" d="M202.7,30.52V6.64h3.14L220.06,22.9V7.19h4.55V31h-3.15L207.24,14.75V30.52Z"/><path class="cls-1" d="M230,30.52V7.19h6.67A12.87,12.87,0,0,1,245,9.87a11.4,11.4,0,0,1,3.23,4.33,11.59,11.59,0,0,1,.94,4.61,11.43,11.43,0,0,1-2,6.63,11.16,11.16,0,0,1-5.47,4.31,14.94,14.94,0,0,1-5.07.77Zm4.55-3.95h1.21a11.33,11.33,0,0,0,4.58-.75,6.72,6.72,0,0,0,3.32-3.25,8.16,8.16,0,0,0,.89-3.72,7.88,7.88,0,0,0-1.23-4.29,6.72,6.72,0,0,0-3.61-2.91,12.41,12.41,0,0,0-4-.51h-1.21Z"/><path class="cls-1" d="M258,7.19V20.54a13.41,13.41,0,0,0,.22,3A4.42,4.42,0,0,0,259.86,26a5,5,0,0,0,2.93.89,4.78,4.78,0,0,0,3.26-1.17,4.46,4.46,0,0,0,1.44-2.61,16.55,16.55,0,0,0,.13-2.58V7.19h4.55V21.44a10.06,10.06,0,0,1-1.71,6.24,8,8,0,0,1-3.56,2.6,11.23,11.23,0,0,1-4.11.77,10.43,10.43,0,0,1-5.71-1.57A7.57,7.57,0,0,1,253.81,25a13.61,13.61,0,0,1-.41-3.58V7.19Z"/><path class="cls-1" d="M291.31,9.38l-2.38,3.11a5,5,0,0,0-3.77-1.86,3.5,3.5,0,0,0-2.45.85,2.16,2.16,0,0,0,.31,3.61,13.85,13.85,0,0,0,2.39,1.06,24.67,24.67,0,0,1,3.32,1.4,6.31,6.31,0,0,1,3.42,5.84,7.21,7.21,0,0,1-2.65,5.92A8.53,8.53,0,0,1,284,31.08a9.33,9.33,0,0,1-8-4.44l2.94-2.82a6,6,0,0,0,1.26,1.67,5.23,5.23,0,0,0,3.64,1.44,3.52,3.52,0,0,0,2.79-1.13,3.21,3.21,0,0,0,.83-2.15,2.75,2.75,0,0,0-1.28-2.36,17.17,17.17,0,0,0-3.23-1.4,12.82,12.82,0,0,1-3.93-2,5.28,5.28,0,0,1-1.83-4.26A6.29,6.29,0,0,1,280.27,8a7.7,7.7,0,0,1,4.2-1.16A10.09,10.09,0,0,1,291.31,9.38Z"/><path class="cls-1" d="M303.77,30.52h-4.55V11.14H294V7.19h15v4h-5.24Z"/><path class="cls-1" d="M321.64,20.69,329,30.52h-5.62l-6.31-9.38h-.58v9.38h-4.54V7.19h6.77q3.93,0,5.94,1.66a6,6,0,0,1,1.76,2.46A7.19,7.19,0,0,1,327,14.1a7.71,7.71,0,0,1-.86,3.57A6,6,0,0,1,321.64,20.69Zm-5.16-2.77h1.32a5.46,5.46,0,0,0,3.13-.75,2.89,2.89,0,0,0,1-1.31,4,4,0,0,0,.29-1.49A3.17,3.17,0,0,0,321,11.62a5.36,5.36,0,0,0-3.11-.74h-1.39Z"/><path class="cls-1" d="M336.2,19.84l-8-12.65h5.37l5,8.1,5-8.1H349l-8.2,12.65V30.52H336.2Z"/><path id="Wortmarke_pos" data-name="Wortmarke pos" class="cls-2" d="M118.49,30.43h7.26l-5.23-9a6.9,6.9,0,0,0,4.54-6.64c0-4.6-3-7.63-9-7.63H104.58V30.43h6.31v-8h3.19l4.41,8.05Zm.26-15.61c0,1.64-1.12,2.83-3.45,2.83h-4.41V12h4.41c2.33,0,3.45,1.18,3.45,2.83ZM93.28,13.74v7.42c0,3.36-1.65,4.54-3.78,4.54s-3.82-1.18-3.82-4.51V13.74H79.24v7.75C79.24,27.6,82.63,31,89.5,31s10.22-3.36,10.22-9.44V13.74Zm-7.6-2.17V7.19H79.24v4.38Zm7.6,0h6.44V7.19H93.28v4.38Zm-40.6,11L49.42,7.19H43l5.92,23.24h6.8l4-15.15,4,15.15H70.5L76.41,7.19H70L66.75,22.58l-4-15.39h-6l-4,15.39ZM163.6,15.51h-7.82V7.19h-6.44V30.43h6.44V20.77h7.82v9.66h6.48V7.19H163.6v8.32Zm-30.18-3.26V30.43h6.45V12.25h6V7.19H127.44v5.06Z"/><path class="cls-3" d="M33.3,14.27H0V0H13.86V5.61h5.58V0H33.3V14.27ZM19.44,30.86v5.59A16.87,16.87,0,0,0,33.3,20.21v-.29H0v.29A16.87,16.87,0,0,0,13.86,36.45V30.86Z"/><line class="cls-4" x1="181.42" x2="181.42" y2="36.45"/></svg>